<svg version="1.1" id="Layer_1" xmlns="http://www.w3.org/2000/svg" xmlns:xlink="http://www.w3.org/1999/xlink" x="0px" y="0px"
	 width="100%" viewBox="0 0 2005 249" enable-background="new 0 0 2005 249" xml:space="preserve">
<path fill="#087CDC" opacity="1.000000" stroke="none" 
	d="
M1.000000,7.468657 
	C14.627655,7.000035 28.259344,7.188774 41.880772,6.897567 
	C46.636932,6.795888 48.131966,8.108493 48.108746,13.015332 
	C47.918663,53.177464 48.001675,93.340889 48.001724,133.503922 
	C48.001728,135.249725 48.001724,136.995529 48.001724,138.741333 
	C48.459240,138.954758 48.916756,139.168182 49.374275,139.381622 
	C53.232498,134.657974 57.146820,129.978867 60.937931,125.201958 
	C70.527451,113.118881 80.057838,100.988892 89.619492,88.883682 
	C94.697479,82.454857 99.691864,75.955055 104.957710,69.683540 
	C106.075966,68.351715 108.203415,67.129959 109.877274,67.114838 
	C128.707092,66.944725 147.539124,67.017937 166.370544,67.045280 
	C166.822937,67.045937 167.275009,67.271851 169.226486,67.793365 
	C142.916183,97.748062 117.109032,127.129936 90.657707,157.245209 
	C116.565582,186.162811 142.617081,215.240723 169.324631,245.050903 
	C167.188614,245.453979 165.741577,245.960342 164.292984,245.964890 
	C146.794739,246.019669 129.293777,246.141342 111.800789,245.833435 
	C109.442825,245.791916 106.482918,244.034622 104.889519,242.151443 
	C92.141457,227.085083 79.615723,211.829575 67.108536,196.561005 
	C62.112122,190.461472 57.365303,184.157990 52.428459,178.008698 
	C51.466839,176.810898 50.151978,175.896683 48.001724,173.946014 
	C48.001724,177.027054 48.001736,178.771881 48.001728,180.516724 
	C48.001625,200.514908 47.873180,220.514557 48.099442,240.510178 
	C48.150486,245.021088 46.648594,246.188019 42.354069,246.084198 
	C28.874403,245.758377 15.385771,245.803436 1.450305,245.852417 
	C1.000000,166.645767 1.000000,87.291542 1.000000,7.468657 
z"/>
<path fill="#1CB8F4" opacity="1.000000" stroke="none" 
	d="
M983.468628,250.000000 
	C982.339600,249.335968 981.746765,248.182709 981.008728,248.080811 
	C968.606750,246.368454 957.885498,240.842773 948.028564,233.493988 
	C929.046814,219.342163 918.316772,199.885422 914.345215,177.045670 
	C912.447815,166.133942 911.919617,154.964432 913.548645,143.469849 
	C915.529724,129.491745 919.049866,116.253380 926.438538,104.636658 
	C934.498413,91.964638 945.357971,81.610954 959.280273,74.904457 
	C971.979431,68.787155 985.339661,65.489052 999.318726,66.116791 
	C1022.004578,67.135490 1041.441406,75.344116 1055.537476,94.009491 
	C1057.193359,96.202118 1058.983765,98.293243 1061.130737,100.949753 
	C1061.429077,98.304848 1061.957397,95.773354 1061.963013,93.240685 
	C1062.023315,66.588264 1062.085205,39.935123 1061.912231,13.283708 
	C1061.884766,9.082396 1063.138428,7.729386 1067.312256,7.916637 
	C1074.128296,8.222429 1080.983276,8.278032 1087.792603,7.905782 
	C1092.667725,7.639265 1093.068970,10.005351 1093.063843,13.937822 
	C1092.975586,81.068794 1093.000366,148.199905 1093.000366,215.330994 
	C1093.000366,224.159653 1092.845215,232.992294 1093.072510,241.815094 
	C1093.170288,245.609116 1092.237427,247.261536 1088.083374,247.085175 
	C1080.933350,246.781616 1073.757446,246.865265 1066.599854,247.060013 
	C1063.167480,247.153381 1061.814819,246.069061 1061.937256,242.504105 
	C1062.159912,236.015198 1062.091919,229.511215 1061.953979,223.017578 
	C1061.900879,220.523651 1061.325195,218.040833 1060.890869,214.838913 
	C1052.466064,227.542892 1042.483398,237.513611 1029.065186,243.311539 
	C1023.931458,245.529770 1018.242737,246.454727 1012.826721,248.036774 
	C1011.941040,248.295486 1011.158325,248.906494 1010.664001,249.677353 
	C1001.979126,250.000000 992.958191,250.000000 983.468628,250.000000 
M962.501709,206.000549 
	C974.131226,217.322525 987.917664,223.608917 1004.287964,222.909271 
	C1014.026184,222.493088 1023.318970,220.456238 1032.011353,215.151413 
	C1044.363892,207.612946 1053.246704,197.299637 1057.767456,183.926514 
	C1062.800293,169.038055 1063.375366,153.758667 1059.149170,138.175323 
	C1053.528687,117.451561 1041.342896,103.177048 1020.951416,96.557037 
	C1003.046875,90.744347 985.921326,93.333572 970.039795,103.461487 
	C958.282043,110.959602 950.161316,121.585266 947.220642,135.055267 
	C945.214417,144.244904 945.221252,153.969559 945.137634,163.462128 
	C944.994873,179.659668 951.294861,193.519730 962.501709,206.000549 
z"/>
<path fill="#1CB8F4" opacity="1.000000" stroke="none" 
	d="
M1221.468628,249.999985 
	C1220.214233,249.334351 1219.501587,248.212509 1218.631470,248.073135 
	C1209.214355,246.564667 1200.904175,242.654358 1192.890503,237.545837 
	C1183.562988,231.599899 1177.058228,223.166946 1169.999756,213.345413 
	C1169.999756,223.600677 1169.806641,232.651138 1170.085815,241.687012 
	C1170.214600,245.853424 1168.934814,247.271942 1164.714722,247.087204 
	C1157.565796,246.774216 1150.391113,246.892166 1143.231934,247.048752 
	C1139.984619,247.119797 1138.941284,245.972748 1138.944580,242.688034 
	C1139.022827,165.898727 1139.022217,89.109306 1138.947266,12.319997 
	C1138.944092,9.055839 1139.962524,7.876256 1143.227417,7.950026 
	C1150.386353,8.111773 1157.561157,8.225083 1164.710327,7.914015 
	C1168.922119,7.730747 1170.109863,9.144070 1170.085083,13.306571 
	C1169.920288,40.956432 1169.999756,68.607750 1169.999756,96.258591 
	C1169.999756,97.894440 1169.999756,99.530296 1169.999756,101.294266 
	C1174.296265,96.384911 1178.178467,91.401840 1182.619751,86.980438 
	C1194.182495,75.469551 1208.241333,69.174797 1224.426147,66.900146 
	C1238.730225,64.889801 1252.302612,66.927132 1265.668335,71.911415 
	C1284.191650,78.819069 1297.835327,91.388290 1307.618530,108.250412 
	C1318.387817,126.811630 1320.252441,147.289993 1318.860840,168.088867 
	C1317.846558,183.248535 1313.595459,197.698715 1305.072388,210.542252 
	C1294.429443,226.580292 1281.017456,239.255844 1262.105347,245.041885 
	C1257.525391,246.443100 1252.957642,247.884125 1248.692139,249.653427 
	C1239.979126,250.000000 1230.958130,250.000000 1221.468628,249.999985 
M1270.457520,109.974045 
	C1265.166626,106.612854 1259.898926,103.214317 1254.579956,99.898087 
	C1242.679199,92.478348 1229.646729,92.976143 1216.574951,94.923187 
	C1206.553833,96.415848 1198.008667,101.368584 1190.528931,108.043617 
	C1182.891479,114.859512 1177.026489,123.190590 1174.177979,132.930862 
	C1170.898193,144.145859 1169.232666,155.552231 1170.767578,167.604553 
	C1173.283081,187.357941 1181.550537,203.153900 1198.324097,214.017609 
	C1213.602905,223.913132 1230.229004,225.534576 1247.323486,219.917679 
	C1265.046265,214.094315 1276.929199,201.629944 1282.824951,184.217224 
	C1287.258789,171.122162 1288.925171,157.694946 1286.391113,143.458023 
	C1284.124634,130.724930 1279.239868,120.015648 1270.457520,109.974045 
z"/>
<path fill="#1CB8F4" opacity="1.000000" stroke="none" 
	d="
M1813.468628,250.000000 
	C1812.379639,249.336044 1811.846191,248.210693 1811.126221,248.074829 
	C1785.669556,243.271561 1767.545532,228.733704 1754.832275,206.538666 
	C1744.417603,188.356552 1741.927856,168.623795 1743.137817,148.310547 
	C1744.072021,132.624008 1748.359741,117.697983 1756.927734,104.243118 
	C1767.881592,87.041374 1783.400269,75.730331 1802.525513,69.300476 
	C1806.784912,67.868469 1811.476318,67.152718 1815.975830,67.121338 
	C1825.397461,67.055611 1834.919434,66.943146 1844.224243,68.177383 
	C1856.161499,69.760826 1866.857056,75.033745 1875.690063,83.324661 
	C1881.313965,88.603409 1886.315918,94.544624 1892.000000,100.619781 
	C1892.000000,91.734573 1892.204712,83.023270 1891.911621,74.328735 
	C1891.770142,70.130928 1893.117798,68.749527 1897.298950,68.919304 
	C1904.449463,69.209648 1911.622925,69.110924 1918.781738,68.950966 
	C1922.054321,68.877831 1923.062378,70.085793 1923.057861,73.335426 
	C1922.977905,129.634918 1922.971191,185.934586 1923.065796,242.234039 
	C1923.072021,245.978424 1921.847900,247.164673 1918.158325,247.069305 
	C1909.674561,246.850052 1901.181030,246.999832 1892.280151,246.999832 
	C1892.280151,236.182541 1892.280151,225.442398 1892.280151,214.101562 
	C1888.132324,219.012497 1884.513062,223.424927 1880.757690,227.718369 
	C1871.990601,237.741623 1860.723267,243.673676 1848.146240,247.409454 
	C1845.876831,248.083511 1843.595093,248.715393 1841.659424,249.683380 
	C1832.645752,250.000000 1823.291504,250.000000 1813.468628,250.000000 
M1798.398682,211.061630 
	C1800.550659,212.528519 1802.615234,214.147888 1804.868286,215.438232 
	C1823.685669,226.214935 1842.979248,226.237991 1861.429688,215.558212 
	C1875.315552,207.520462 1885.486572,195.579788 1889.021606,179.169540 
	C1891.120117,169.427521 1892.083618,159.734024 1891.209106,149.624405 
	C1889.950684,135.076065 1885.101562,122.228760 1875.150391,111.873863 
	C1861.826660,98.009605 1845.591553,91.269279 1825.809570,93.885597 
	C1808.492188,96.175980 1794.666504,103.841965 1785.080078,118.371185 
	C1775.247070,133.274399 1772.403198,149.733704 1774.879150,167.448593 
	C1777.306030,184.811752 1784.487793,199.379944 1798.398682,211.061630 
z"/>
<path fill="#1CB8F4" opacity="1.000000" stroke="none" 
	d="
M2006.000000,28.535349 
	C2004.701904,30.184793 2003.050415,31.152050 2002.165161,32.590851 
	C1997.575073,40.050716 1987.674194,44.406834 1979.622192,41.840630 
	C1971.584839,39.279118 1964.787598,31.580853 1964.815552,22.343010 
	C1964.843262,13.227562 1968.833374,7.377341 1976.380005,3.228767 
	C1977.205933,2.774748 1977.905762,2.091400 1978.332031,1.257189 
	C1982.356934,1.000000 1986.713745,1.000000 1991.207520,1.272235 
	C1997.153564,4.873881 2002.526489,8.634949 2005.013916,15.282034 
	C2005.023438,15.307452 2005.657593,15.099164 2006.000000,15.000009 
	C2006.000000,19.356899 2006.000000,23.713799 2006.000000,28.535349 
z"/>
<path fill="#087CDC" opacity="1.000000" stroke="none" 
	d="
M536.498779,67.242958 
	C546.004028,66.052689 555.199768,63.750717 564.220703,64.303444 
	C577.967896,65.145760 591.382935,68.569778 601.973633,78.510521 
	C606.314270,82.584694 610.460449,86.865974 614.896729,91.252419 
	C614.896729,83.420311 614.896729,75.533165 614.896729,67.328194 
	C630.363831,67.328194 645.410950,67.328194 660.730225,67.328194 
	C660.730225,126.684921 660.730225,185.934326 660.730225,246.000793 
	C658.277954,246.000793 655.699341,246.000824 653.120789,246.000809 
	C642.125305,246.000717 631.127136,245.860504 620.135864,246.076126 
	C616.259399,246.152161 614.762817,245.065796 614.921875,241.000153 
	C615.208069,233.685928 615.002686,226.352463 615.002686,219.705154 
	C609.064392,225.255585 603.073853,231.285995 596.622864,236.775269 
	C588.559143,243.636810 578.703125,246.945465 568.402893,247.850952 
	C551.441040,249.342072 534.797913,247.495148 519.673401,238.835403 
	C506.174255,231.106354 495.618073,220.547150 487.739594,206.841003 
	C481.987762,196.834549 478.258148,186.188980 476.468872,175.226807 
	C474.793915,164.964905 475.074585,154.129166 476.218658,143.735748 
	C477.290955,133.993637 479.707031,124.156425 483.157623,114.971916 
	C489.488312,98.121582 500.968567,84.998093 516.581055,75.964714 
	C522.694397,72.427536 529.578125,70.221832 536.498779,67.242958 
M522.094299,152.789719 
	C522.396667,156.880997 522.602112,160.982208 523.020630,165.061569 
	C524.028748,174.886246 527.460083,183.978317 533.971924,191.257904 
	C545.389648,204.021729 559.803528,210.284363 577.080811,206.887497 
	C592.625000,203.831360 604.433533,195.203445 610.272095,180.124878 
	C612.473450,174.439774 612.735535,168.018097 614.026428,161.963058 
	C616.382019,150.914474 614.277222,140.127930 609.520813,130.521271 
	C601.315369,113.948372 587.140747,105.131905 568.435730,105.085808 
	C550.528625,105.041664 537.407715,113.572205 528.475403,129.016663 
	C524.323792,136.195007 523.514099,144.079666 522.094299,152.789719 
z"/>
<path fill="#087CDC" opacity="1.000000" stroke="none" 
	d="
M324.018036,171.827087 
	C321.037781,177.786972 324.967194,182.583282 327.222412,187.261627 
	C334.940887,203.273270 349.138123,208.987808 365.769104,208.827042 
	C378.363068,208.705261 388.544708,202.801102 396.025940,192.364792 
	C397.210571,190.712234 399.828552,189.194962 401.815674,189.153809 
	C415.302063,188.874603 428.797302,189.055466 442.289032,188.978989 
	C446.137726,188.957169 447.777222,189.611923 446.139648,194.135941 
	C437.625946,217.655899 421.407623,233.468689 398.288025,242.260178 
	C376.688599,250.473602 354.552032,250.609100 332.704681,243.866318 
	C311.926056,237.453400 296.362152,223.867935 286.071899,204.757797 
	C280.401093,194.226471 276.487396,182.930298 275.985443,170.734467 
	C275.720551,164.298126 274.920959,157.856964 275.075470,151.435120 
	C275.584595,130.275925 281.263336,110.908150 295.100250,94.287659 
	C304.688782,82.770226 316.488037,74.939995 330.469330,69.662788 
	C343.710388,64.664993 357.318115,63.282322 371.131287,64.108833 
	C395.743317,65.581497 416.983490,75.098923 433.169281,93.894958 
	C443.874817,106.326942 450.900970,120.889946 451.965485,137.670593 
	C452.530853,146.583481 452.846191,155.522766 452.883087,164.451752 
	C452.893036,166.860550 451.473450,169.275269 449.974091,171.561279 
	C448.256073,171.292603 447.274048,171.025650 446.291931,171.025085 
	C406.983459,171.002319 367.674988,170.994873 328.366547,171.036728 
	C326.916779,171.038269 325.467529,171.552032 324.018036,171.827087 
M356.500000,140.997864 
	C372.590637,140.997864 388.681244,140.997864 405.174042,140.997864 
	C403.658813,126.537598 396.932556,115.680939 384.942535,109.192268 
	C369.906372,101.055099 354.225830,101.377754 339.884247,111.169228 
	C329.786377,118.063354 324.522156,128.368790 322.978333,140.997864 
	C334.246246,140.997864 344.873108,140.997864 356.500000,140.997864 
z"/>
<path fill="#1CB8F4" opacity="1.000000" stroke="none" 
	d="
M1385.000000,166.000000 
	C1385.000000,191.495804 1384.896973,216.492447 1385.096191,241.486664 
	C1385.131592,245.925354 1383.811646,247.326660 1379.424438,247.088120 
	C1373.110840,246.744812 1366.747925,246.719223 1360.437988,247.094650 
	C1355.845337,247.367935 1354.904907,245.569077 1354.917725,241.337997 
	C1355.051636,197.345764 1355.000244,153.352997 1355.000244,109.360367 
	C1355.000244,96.069832 1355.000244,82.779305 1355.000244,69.004578 
	C1364.181641,69.004578 1372.962402,69.040657 1381.742554,68.985550 
	C1384.934814,68.965515 1385.030884,70.988373 1385.015625,73.338074 
	C1384.970215,80.319870 1384.999512,87.302155 1384.999512,96.108475 
	C1400.197266,72.986588 1421.321167,65.631180 1446.518799,66.947029 
	C1472.201416,68.288200 1490.675537,80.712891 1503.189941,102.773712 
	C1506.703613,98.419296 1510.194214,94.235283 1513.530396,89.931519 
	C1522.426025,78.455811 1534.767212,72.955910 1548.251465,68.857834 
	C1558.249146,65.819359 1568.430176,66.309158 1578.234741,67.352730 
	C1589.988525,68.603752 1601.098633,72.725693 1610.703979,80.863167 
	C1620.747070,89.371330 1628.270630,99.116173 1632.179565,111.601471 
	C1635.105835,120.947784 1637.085938,130.443146 1637.048584,140.357315 
	C1636.921631,174.017868 1636.931641,207.679474 1637.084839,241.339813 
	C1637.104370,245.645401 1635.977051,247.321579 1631.477539,247.086823 
	C1624.996338,246.748688 1618.478394,246.831772 1611.987305,247.057587 
	C1607.396362,247.217285 1605.924072,245.273697 1605.938721,240.835205 
	C1606.049927,207.007965 1606.285889,173.176636 1605.867310,139.354218 
	C1605.685303,124.648903 1600.412476,111.399132 1588.421631,102.235397 
	C1582.054688,97.369713 1574.427734,94.511559 1565.969482,93.831924 
	C1557.723511,93.169350 1549.873657,93.643646 1541.891846,95.876808 
	C1526.909424,100.068550 1517.825439,110.111160 1514.245483,124.585449 
	C1511.993042,133.692123 1511.258911,143.349167 1511.138428,152.775879 
	C1510.761841,182.266129 1510.894409,211.764969 1511.108154,241.258484 
	C1511.142456,245.981216 1509.739136,247.388657 1505.146729,247.091461 
	C1499.338623,246.715561 1493.487915,247.001907 1487.655518,247.000320 
	C1481.004395,246.998535 1481.000977,246.997452 1481.000610,240.561447 
	C1480.999268,211.066391 1481.259155,181.567932 1480.872803,152.077942 
	C1480.717651,140.228363 1480.304565,128.129791 1474.909424,117.147827 
	C1469.677002,106.497322 1461.856567,98.590652 1449.721313,95.993843 
	C1445.148071,95.015236 1440.610840,93.502121 1435.993408,93.197647 
	C1431.120850,92.876328 1425.984253,92.991539 1421.306396,94.221680 
	C1415.950684,95.630043 1410.778320,98.115303 1405.869629,100.767952 
	C1393.950684,107.209023 1388.644165,118.254143 1387.135010,130.998459 
	C1385.782104,142.423035 1385.663330,153.993759 1385.000000,166.000000 
z"/>
<path fill="#087CDC" opacity="1.000000" stroke="none" 
	d="
M832.200745,148.013733 
	C832.225586,139.440048 831.541260,130.985535 827.561768,123.174042 
	C821.742554,111.751488 811.966064,107.128166 799.579834,105.757637 
	C792.035034,104.922806 785.073730,105.428612 777.984192,107.931618 
	C763.227600,113.141525 756.650330,123.478645 756.212708,138.779434 
	C755.239136,172.821594 755.276306,206.894089 755.083313,240.955246 
	C755.060791,244.935684 753.855713,246.145920 749.915527,246.077118 
	C737.595459,245.862015 725.266296,245.844940 712.947083,246.084183 
	C708.825073,246.164246 707.927551,244.616913 707.934082,240.817459 
	C708.031555,184.194626 707.983398,127.571541 708.096497,70.948769 
	C708.099609,69.393799 709.512939,67.841629 711.013794,66.438004 
	C725.556152,66.722328 739.353271,66.856796 753.150391,66.991272 
	C753.766846,68.230354 754.880981,69.455444 754.916260,70.710838 
	C755.097046,77.145493 754.999939,83.587982 754.999939,91.076973 
	C761.260803,82.323639 767.910095,75.183472 776.824646,71.150192 
	C797.338501,61.868931 818.367065,61.022984 839.139648,70.122360 
	C860.920410,79.663383 873.166748,97.013535 876.880615,120.202301 
	C878.357239,129.421860 878.833557,138.877075 878.908264,148.231857 
	C879.151672,178.693954 878.999451,209.159225 878.999451,239.623276 
	C878.999451,241.444504 878.999390,243.265732 878.999390,245.033829 
	C878.348145,245.398666 877.929749,245.837097 877.509399,245.839020 
	C863.197021,245.904709 848.884583,245.939133 834.572144,245.916687 
	C834.076050,245.915909 833.580994,245.287476 833.028442,244.057312 
	C832.980835,213.229599 833.003967,183.296097 832.965515,153.362686 
	C832.963196,151.579376 832.467102,149.796707 832.200745,148.013733 
z"/>
<path fill="#087CDC" opacity="1.000000" stroke="none" 
	d="
M222.998169,7.000473 
	C228.798523,7.000473 234.099243,7.000473 239.696716,7.000473 
	C239.696716,86.731461 239.696716,166.091995 239.696716,245.726562 
	C224.645508,245.726562 209.715836,245.726562 194.392975,245.726562 
	C194.392975,166.447586 194.392975,87.086861 194.392975,7.000473 
	C203.656952,7.000473 213.077744,7.000473 222.998169,7.000473 
z"/>
<path fill="#1CB8F4" opacity="1.000000" stroke="none" 
	d="
M2000.000488,149.000000 
	C2000.000488,180.156067 1999.915894,210.812637 2000.094971,241.467667 
	C2000.120728,245.889984 1998.831177,247.271362 1994.435425,247.092285 
	C1986.489502,246.768616 1978.520874,247.000656 1970.240356,247.000656 
	C1970.147949,244.981262 1970.010010,243.367355 1970.009644,241.753433 
	C1969.998535,186.106003 1970.055054,130.458420 1969.900146,74.811409 
	C1969.887207,70.184120 1971.116821,68.596558 1975.795166,68.896439 
	C1981.768555,69.279320 1987.790771,69.150482 1993.781006,68.936050 
	C1998.233643,68.776672 2000.173462,69.971092 2000.119019,75.026657 
	C1999.855591,99.515358 2000.000366,124.008461 2000.000488,149.000000 
z"/>
<path fill="#1CB8F4" opacity="1.000000" stroke="none" 
	d="
M1698.980591,246.048767 
	C1690.457397,249.487259 1677.903809,241.524429 1676.043213,231.822037 
	C1674.192017,222.169128 1679.338745,212.629608 1688.467407,209.268417 
	C1696.098755,206.458542 1702.857056,208.397552 1708.547241,214.066666 
	C1713.958496,219.457809 1715.682495,227.857742 1712.588013,234.850250 
	C1710.036987,240.615097 1706.059570,244.970428 1698.980591,246.048767 
z"/>
<path fill="#006DDB" opacity="1.000000" stroke="none" 
	d="
M324.480835,171.897934 
	C325.467529,171.552032 326.916779,171.038269 328.366547,171.036728 
	C367.674988,170.994873 406.983459,171.002319 446.291931,171.025085 
	C447.274048,171.025650 448.256073,171.292603 449.598328,171.626038 
	C424.558685,171.877838 399.158813,171.956665 373.758911,171.993622 
	C357.487183,172.017288 341.215363,171.979187 324.480835,171.897934 
z"/>
<path fill="#0080CC" opacity="1.000000" stroke="none" 
	d="
M832.118774,148.475372 
	C832.467102,149.796707 832.963196,151.579376 832.965515,153.362686 
	C833.003967,183.296097 832.980835,213.229599 832.959473,243.638824 
	C832.631714,242.748566 832.041931,241.382919 832.040100,240.016495 
	C831.999878,209.656723 832.024536,179.296860 832.118774,148.475372 
z"/>
<path fill="#00ACFF" opacity="1.000000" stroke="none" 
	d="
M752.937683,66.597229 
	C739.353271,66.856796 725.556152,66.722328 711.412170,66.373909 
	C724.951843,66.174377 738.838440,66.188789 752.937683,66.597229 
z"/>
</svg>