<?xml version="1.0" standalone="no"?>
<!DOCTYPE svg PUBLIC "-//W3C//DTD SVG 20010904//EN"
 "http://www.w3.org/TR/2001/REC-SVG-20010904/DTD/svg10.dtd">
<svg version="1.0" xmlns="http://www.w3.org/2000/svg"
 width="231.000000pt" height="231.000000pt" viewBox="0 0 231.000000 231.000000"
 preserveAspectRatio="xMidYMid meet">
<metadata>
Created by potrace 1.14, written by Peter Selinger 2001-2017
</metadata>
<g transform="translate(0.000000,231.000000) scale(0.100000,-0.100000)"
fill="#000000" stroke="none">
<path d="M367 2293 c-4 -7 -3 -2271 1 -2283 4 -10 411 -5 421 5 6 6 11 49 11
95 0 47 0 195 -1 330 0 297 -1 280 9 280 4 0 23 -22 42 -48 19 -26 37 -49 40
-52 3 -3 97 -120 208 -260 112 -140 217 -273 235 -294 18 -21 35 -44 39 -50 9
-13 558 -16 558 -3 0 7 -150 181 -235 273 -18 20 -140 157 -158 178 -10 12
-30 35 -46 51 -30 33 -179 200 -253 285 -27 30 -48 57 -48 61 0 8 44 64 70 89
9 8 40 44 70 80 30 36 62 72 70 80 9 8 78 87 154 175 77 88 144 165 150 170 6
6 38 42 71 80 33 39 75 87 94 107 78 86 99 78 -217 78 l-278 0 -65 -81 c-35
-45 -95 -120 -134 -168 -38 -48 -79 -100 -90 -115 -11 -16 -25 -33 -30 -40 -6
-6 -53 -65 -105 -131 -52 -66 -100 -126 -107 -133 -7 -7 -17 -21 -22 -30 -5
-9 -12 -14 -16 -10 -4 3 -8 294 -8 645 l-2 638 -212 3 c-116 1 -214 -1 -216
-5z"/>
</g>
</svg>
